<svg width="24" height="24" viewBox="0 0 24 24" fill="none" xmlns="http://www.w3.org/2000/svg">
<path d="M23.4736 5.84792C23.0186 5.29198 22.3109 4.95408 21.5785 4.95408H6.19066L5.71097 3.16642C5.43262 2.12723 4.47323 1.40234 3.36082 1.40234H0.783719C0.354361 1.40234 0 1.74024 0 2.15178C0 2.56235 0.353351 2.90121 0.783719 2.90121H3.36082C3.73985 2.90121 4.06854 3.14284 4.1692 3.50528L7.25167 15.2489C7.53003 16.2881 8.48941 17.013 9.60182 17.013H19.6833C20.7947 17.013 21.7808 16.2881 22.0335 15.2489L23.9286 7.80651C24.1053 7.12881 23.9543 6.40393 23.4736 5.84799L23.4736 5.84792ZM22.3879 7.46663L20.4928 14.909C20.3921 15.2715 20.0634 15.5131 19.6844 15.5131H9.60185C9.22282 15.5131 8.89413 15.2715 8.79347 14.909L6.59533 6.47668H21.5796C21.8323 6.47668 22.085 6.59749 22.237 6.79099C22.388 6.98354 22.463 7.22517 22.388 7.4668L22.3879 7.46663Z" fill="white"/>
<path d="M10.1332 17.9778C8.69316 17.9778 7.50586 19.1132 7.50586 20.4902C7.50586 21.8672 8.69326 23.0027 10.1332 23.0027C11.5733 23.0036 12.7606 21.8682 12.7606 20.491C12.7606 19.1137 11.5732 17.9775 10.1332 17.9775V17.9778ZM10.1332 21.4814C9.55188 21.4814 9.09685 21.0463 9.09685 20.4903C9.09685 19.9344 9.55188 19.4993 10.1332 19.4993C10.7146 19.4993 11.1696 19.9344 11.1696 20.4903C11.1687 21.0227 10.689 21.4814 10.1332 21.4814Z" fill="white"/>
<path d="M18.8251 17.9775C17.3851 17.9775 16.1978 19.113 16.1978 20.49C16.1978 21.867 17.3852 23.0024 18.8251 23.0024C20.2651 23.0024 21.4525 21.867 21.4525 20.49C21.4279 19.1138 20.2651 17.9775 18.8251 17.9775ZM18.8251 21.4811C18.2438 21.4811 17.7887 21.046 17.7887 20.4901C17.7887 19.9341 18.2438 19.499 18.8251 19.499C19.4065 19.499 19.8615 19.9341 19.8615 20.4901C19.8615 21.0224 19.3809 21.4811 18.8251 21.4811Z" fill="white"/>
</svg>
